<svg viewBox="222 160 327 450" fill="none" xmlns="http://www.w3.org/2000/svg">
<path d="M529.17 383.142V383.083C529.17 383.015 529.161 382.947 529.161 382.887C529.153 382.743 529.153 382.598 529.136 382.462C528.804 375.126 522.769 369.278 515.356 369.278H434.789C427.164 369.278 420.976 375.458 420.976 383.091V383.678C420.976 391.303 427.156 397.491 434.789 397.491H480.989L348.144 528.1L463.274 195.138C465.221 189.519 463.308 183.51 458.964 179.948C458.88 179.863 458.812 179.769 458.727 179.676C453.261 174.117 444.335 174.049 438.776 179.506L242.016 372.976C239.033 375.908 237.647 379.844 237.834 383.72C237.834 383.746 237.834 383.78 237.834 383.805V384.392C237.834 392.017 244.014 398.205 251.648 398.205H332.954C340.579 398.205 346.767 392.025 346.767 384.392V383.805C346.767 376.18 340.588 369.992 332.954 369.992H285.301L418.128 239.391L302.965 572.43C300.474 579.638 304.299 587.501 311.508 590L312.06 590.196C312.077 590.204 312.103 590.204 312.12 590.213C317.305 592.635 323.655 591.751 327.973 587.501L524.97 393.81C527.946 390.886 529.331 386.993 529.17 383.142Z" fill="#F0CF50"/>
</svg>
